:version 1.10
:name ASF
:units
  mass 1
  length 1
  angle deg
:documentation
  ASF file generated by Kaydara
:root
  axis xyz
  order  tx ty tz rx ry rz
  position 0 0 0
  orientation 0 0 0
:bonedata
  begin
    id 1
    name RightUpLegDummy
    direction -0.718183 -0.695806 0.00816078
    length 4.904
    axis 0 0 0 xyz
  end
  begin
    id 2
    name RightUpLeg
    direction 3.53373e-006 -0.995788 0.0916898
    length 17.4976
    axis -3.49089 -0.000906625 0.000286804 xyz
    dof rx ry rz
  end
  begin
    id 3
    name RightLeg
    direction 0.00371092 -0.995096 -0.0988419
    length 16.5821
    axis 3.68512 0.0193738 -0.131023 xyz
    dof rx ry rz
  end
  begin
    id 4
    name RightFoot
    direction 0.00079151 -0.46099 0.887405
    length 3.77069
    axis 4.81691e-005 -0.120479 -0.188788 xyz
    dof rx ry rz
  end
  begin
    id 5
    name RightToes
    direction 0 0 0
    length 0
    axis 0 0 0 xyz
    dof rx ry rz
  end
  begin
    id 6
    name SpineDummy
    direction 8.3039e-015 1 4.57515e-016
    length 4.6813
    axis 0 0 0 xyz
  end
  begin
    id 7
    name Spine
    direction -3.15643e-008 0.999988 0.00495137
    length 10.1015
    axis -0.001389 0.000121418 2.40972e-006 xyz
    dof rx ry rz
  end
  begin
    id 8
    name Spine1
    direction 0 0 0
    length 0
    axis -0.001389 0.000121451 1.30017e-006 xyz
    dof rx ry rz
  end
  begin
    id 9
    name HEadDummy
    direction -1.99912e-008 0.999999 0.00127422
    length 3.43865
    axis -0.001389 0.000121451 1.30017e-006 xyz
  end
  begin
    id 10
    name HEad
    direction 0 0 0
    length 0
    axis 0 0 0 xyz
    dof rx ry rz
  end
  begin
    id 11
    name LeftShoulder1Dummy
    direction 0.998891 -0.0402509 -0.0244456
    length 3.5433
    axis -0.001389 0.000121451 1.30017e-006 xyz
  end
  begin
    id 12
    name LeftShoulder1
    direction 0.99951 -0.000327763 0.0313091
    length 4.05031
    axis -0.001389 0.000121451 1.30017e-006 xyz
    dof rx ry rz
  end
  begin
    id 13
    name LeftArm
    direction 0.998561 -0.00100056 -0.0536182
    length 10.3537
    axis -23.1894 0.134784 0.967509 xyz
    dof rx ry rz
  end
  begin
    id 14
    name LeftForeArm
    direction 0.998903 0.00866432 0.046012
    length 8.70632
    axis -9.91835 -0.06569 -0.177794 xyz
    dof rx ry rz
  end
  begin
    id 15
    name LeftHand
    direction 0 0 0
    length 0
    axis 0 0 0 xyz
    dof rx ry rz
  end
  begin
    id 16
    name RightShoulderDummy
    direction -0.998891 -0.0402509 -0.0244414
    length 3.5433
    axis -0.001389 0.000121451 1.30017e-006 xyz
  end
  begin
    id 17
    name RightShoulder
    direction -0.99951 -0.000327807 0.0313133
    length 4.05031
    axis 0.215806 0.000203643 -0.0068026 xyz
    dof rx ry rz
  end
  begin
    id 18
    name RightArm
    direction -0.998573 -0.000999564 -0.053403
    length 10.3947
    axis -23.2009 -0.134239 -0.964101 xyz
    dof rx ry rz
  end
  begin
    id 19
    name RightForeArm
    direction -0.998898 0.00868028 0.0461306
    length 8.68355
    axis -9.92322 0.0658061 0.178868 xyz
    dof rx ry rz
  end
  begin
    id 20
    name RightHand
    direction 0 0 0
    length 0
    axis 0 0 0 xyz
    dof rx ry rz
  end
  begin
    id 21
    name LeftUpLegDummy
    direction 0.718183 -0.695806 0.00816078
    length 4.904
    axis 0 0 0 xyz
  end
  begin
    id 22
    name LeftUpLeg
    direction -6.81752e-006 -0.995793 0.0916337
    length 17.4976
    axis -3.48766 0.00143442 -0.000524262 xyz
    dof rx ry rz
  end
  begin
    id 23
    name LeftLeg
    direction -0.00601358 -0.995091 -0.0987824
    length 16.5821
    axis 3.68178 -0.00654042 -0.000285133 xyz
    dof rx ry rz
  end
  begin
    id 24
    name LeftFoot
    direction -0.00417578 -0.460984 0.887399
    length 3.77069
    axis 1.87233e-006 4.66016e-005 -8.6538e-006 xyz
    dof rx ry rz
  end
  begin
    id 25
    name LeftToes
    direction 0 0 0
    length 0
    axis 0 0 0 xyz
    dof rx ry rz
  end
:hierarchy
  begin
    root RightUpLegDummy SpineDummy LeftUpLegDummy
    RightUpLegDummy RightUpLeg
    RightUpLeg RightLeg
    RightLeg RightFoot
    RightFoot RightToes
    SpineDummy Spine
    Spine Spine1
    Spine1 HEadDummy LeftShoulder1Dummy RightShoulderDummy
    HEadDummy HEad
    LeftShoulder1Dummy LeftShoulder1
    LeftShoulder1 LeftArm
    LeftArm LeftForeArm
    LeftForeArm LeftHand
    RightShoulderDummy RightShoulder
    RightShoulder RightArm
    RightArm RightForeArm
    RightForeArm RightHand
    LeftUpLegDummy LeftUpLeg
    LeftUpLeg LeftLeg
    LeftLeg LeftFoot
    LeftFoot LeftToes
  end

:SAMPLES-PER-SECOND 30
:FULLY-SPECIFIED
:DEGREES
1
root  70.9345 40.4885 0.645523 -110.053 -87.7231 110.529
RightUpLeg  0.284928 -9.59671 -7.8333
RightLeg  4.69251 -7.47572 3.36941
RightFoot  -3.77528 -0.129658 1.72225
RightToes  0.000481921 0.542163 -0.142578
Spine  3.17024 0.289747 -1.57522
Spine1  -1.04308 -0.145706 2.81184
HEad  -2.81848 4.38365 1.38152
LeftShoulder1  0.904795 -2.07669 -8.69054
LeftArm  -16.467 9.70505 -2.17156
LeftForeArm  23.9729 -2.31362 -1.53863
LeftHand  -0.25398 0.0180481 5.50724
RightShoulder  0.26829 -1.44802 5.24522
RightArm  -25.6212 -4.0127 1.8214
RightForeArm  -6.02258 1.36959 1.76201
RightHand  -2.71995 11.171 -19.3634
LeftUpLeg  -0.29762 4.03858 0.98652
LeftLeg  0.563128 16.6482 -4.37637
LeftFoot  -0.591706 0.0563718 -0.480945
LeftToes  1.06247e-005 4.65869e-005 -8.65512e-006
2
root  70.941 40.4885 0.637841 -111.165 -87.7303 111.639
RightUpLeg  0.272908 -9.56733 -7.78463
RightLeg  4.67269 -7.47579 3.36982
RightFoot  -3.75665 -0.124252 1.63837
RightToes  0.000481921 0.542163 -0.142578
Spine  3.46654 0.36097 -1.5501
Spine1  -1.414 -0.0649113 2.78326
HEad  -2.69952 4.28201 1.52716
LeftShoulder1  0.775277 -1.38551 -8.28126
LeftArm  -16.9382 9.0425 -2.99706
LeftForeArm  24.6255 -2.13742 -1.4274
LeftHand  -0.25398 0.0180481 5.50724
RightShoulder  0.259482 -1.52139 5.28778
RightArm  -25.4756 -4.08334 1.75358
RightForeArm  -6.60986 1.49179 1.85518
RightHand  -2.76303 11.1949 -19.6294
LeftUpLeg  -0.333245 4.07626 1.03212
LeftLeg  0.634009 16.6431 -4.36718
LeftFoot  -0.614202 0.0542993 -0.448736
LeftToes  1.06247e-005 4.65869e-005 -8.65512e-006
3
root  70.9455 40.4885 0.624004 -111.164 -87.7383 111.651
RightUpLeg  0.253694 -9.55457 -7.74928
RightLeg  4.659 -7.4857 3.37706
RightFoot  -3.74735 -0.119745 1.56845
RightToes  0.000481921 0.542163 -0.142578
Spine  3.58752 0.420142 -1.54051
Spine1  -1.54187 -0.00226527 2.77448
HEad  -2.72724 4.18811 1.58488
LeftShoulder1  0.678166 -0.837192 -8.00684
LeftArm  -17.316 8.47845 -3.65562
LeftForeArm  25.2093 -1.93558 -1.32791
LeftHand  -0.25398 0.0180481 5.50724
RightShoulder  0.247539 -1.60858 5.25549
RightArm  -25.3631 -4.13749 1.75227
RightForeArm  -7.09526 1.5788 1.92708
RightHand  -2.79816 11.199 -19.8632
LeftUpLeg  -0.379864 4.09346 1.05864
LeftLeg  0.687366 16.6323 -4.34929
LeftFoot  -0.626947 0.0487443 -0.362408
LeftToes  1.06247e-005 4.65869e-005 -8.65512e-006
4
root  70.9406 40.4885 0.610247 -108.917 -87.7683 109.418
RightUpLeg  0.272103 -9.5709 -7.74622
RightLeg  4.63699 -7.53794 3.40481
RightFoot  -3.74716 -0.120625 1.58209
RightToes  0.000481921 0.542163 -0.142578
Spine  3.29125 0.373934 -1.54233
Spine1  -1.11035 -0.0590558 2.80253
HEad  -2.89187 4.36252 1.56412
LeftShoulder1  0.65324 -0.673774 -8.01278
LeftArm  -17.4513 8.34495 -3.81703
LeftForeArm  25.4115 -1.80632 -1.26997
LeftHand  -0.25398 0.0180481 5.50724
RightShoulder  0.25067 -1.56932 5.1406
RightArm  -25.3808 -4.11445 1.8413
RightForeArm  -6.98667 1.54089 1.9131
RightHand  -2.7726 11.1648 -19.7282
LeftUpLeg  -0.392721 4.07184 1.05839
LeftLeg  0.66731 16.5806 -4.32825
LeftFoot  -0.602058 0.0455681 -0.313047
LeftToes  1.06247e-005 4.65869e-005 -8.65512e-006
5
root  70.9337 40.4885 0.597957 -106.023 -87.8173 106.534
RightUpLeg  0.319638 -9.585 -7.73485
RightLeg  4.59244 -7.63084 3.44135
RightFoot  -3.73993 -0.121969 1.60296
RightToes  0.000481921 0.542163 -0.142578
Spine  2.9077 0.269819 -1.54381
Spine1  -0.565296 -0.180992 2.85453
HEad  -3.04562 4.75039 1.45901
LeftShoulder1  0.622355 -0.468711 -8.03625
LeftArm  -17.6336 8.26924 -3.96128
LeftForeArm  25.5217 -1.73683 -1.19607
LeftHand  -0.25398 0.0180481 5.50724
RightShoulder  0.268508 -1.41897 5.05192
RightArm  -25.5215 -4.02015 1.92734
RightForeArm  -6.62995 1.4291 1.8429
RightHand  -2.73849 11.1867 -19.4722
LeftUpLeg  -0.39486 4.05158 1.07655
LeftLeg  0.640718 16.4793 -4.30861
LeftFoot  -0.567415 0.0506721 -0.392368
LeftToes  1.06247e-005 4.65869e-005 -8.65512e-006
6
root  70.9335 40.4885 0.584779 -104.249 -87.8502 104.777
RightUpLeg  0.334065 -9.5825 -7.70478
RightLeg  4.5595 -7.71309 3.46406
RightFoot  -3.7383 -0.119323 1.5619
RightToes  0.000481921 0.542163 -0.142578
Spine  2.75518 0.220268 -1.57891
Spine1  -0.345136 -0.25095 2.94375
HEad  -3.27641 4.98698 0.995658
LeftShoulder1  0.586419 -0.23178 -8.06057
LeftArm  -17.8505 8.13024 -4.12447
LeftForeArm  25.5975 -1.73235 -1.12899
LeftHand  -0.25398 0.0180481 5.50724
RightShoulder  0.278618 -1.33383 5.0083
RightArm  -25.7644 -3.88503 1.99818
RightForeArm  -6.43333 1.29908 1.74957
RightHand  -2.76116 11.3105 -19.4878
LeftUpLeg  -0.434066 4.0552 1.11407
LeftLeg  0.674572 16.3779 -4.29606
LeftFoot  -0.558683 0.0606543 -0.547499
LeftToes  1.06247e-005 4.65869e-005 -8.65512e-006
7
root  70.9379 40.4885 0.570491 -103.483 -87.8543 104.024
RightUpLeg  0.314476 -9.57312 -7.67882
RightLeg  4.56323 -7.75934 3.46371
RightFoot  -3.74914 -0.115327 1.4999
RightToes  0.000481921 0.542163 -0.142578
Spine  2.79198 0.253263 -1.65673
Spine1  -0.37782 -0.240958 3.0744
HEad  -3.67298 4.88146 0.147322
LeftShoulder1  0.591378 -0.228798 -8.21987
LeftArm  -17.9099 8.07606 -4.03774
LeftForeArm  25.5328 -1.76633 -1.11651
LeftHand  -0.25398 0.0180481 5.50724
RightShoulder  0.267406 -1.40902 4.92326
RightArm  -26.002 -3.76775 2.10141
RightForeArm  -6.35843 1.1776 1.66218
RightHand  -2.79823 11.3737 -19.6676
LeftUpLeg  -0.489596 4.07282 1.143
LeftLeg  0.746434 16.3132 -4.29118
LeftFoot  -0.569374 0.0664465 -0.637517
LeftToes  1.06247e-005 4.65869e-005 -8.65512e-006
8
root  70.9393 40.4885 0.559059 -102.589 -87.8625 103.098
RightUpLeg  0.349222 -9.5619 -7.66095
RightLeg  4.56578 -7.80976 3.45426
RightFoot  -3.76374 -0.113837 1.47678
RightToes  0.000481921 0.542163 -0.142578
Spine  2.84756 0.29417 -1.70005
Spine1  -0.390607 -0.217877 3.17727
HEad  -3.9866 4.65568 -0.54309
LeftShoulder1  0.614202 -0.33209 -8.41336
LeftArm  -17.846 8.05446 -3.83536
LeftForeArm  25.4137 -1.76579 -1.14277
LeftHand  -0.25398 0.0180481 5.50724
RightShoulder  0.248723 -1.53679 4.78732
RightArm  -26.0957 -3.70705 2.20139
RightForeArm  -6.19283 1.08843 1.61374
RightHand  -2.76118 11.204 -19.6061
LeftUpLeg  -0.485517 4.09543 1.16836
LeftLeg  0.795712 16.2594 -4.28611
LeftFoot  -0.576148 0.0658814 -0.628734
LeftToes  1.06247e-005 4.65869e-005 -8.65512e-006
9
root  70.936 40.4885 0.553167 -101.394 -87.8966 101.82
RightUpLeg  0.474671 -9.5505 -7.64203
RightLeg  4.53325 -7.88395 3.45418
RightFoot  -3.77042 -0.113856 1.47707
RightToes  0.000481921 0.542163 -0.142578
Spine  2.8872 0.2852 -1.64509
Spine1  -0.336983 -0.227948 3.17674
HEad  -3.95316 4.58354 -0.653178
LeftShoulder1  0.605947 -0.273922 -8.44037
LeftArm  -17.7752 7.94291 -3.82735
LeftForeArm  25.3074 -1.74219 -1.1888
LeftHand  -0.25398 0.0180481 5.50724
RightShoulder  0.239687 -1.59309 4.67566
RightArm  -26.0675 -3.66743 2.24489
RightForeArm  -5.86626 1.05636 1.60536
RightHand  -2.67628 10.9917 -19.2644
LeftUpLeg  -0.406682 4.11823 1.20528
LeftLeg  0.8144 16.1921 -4.27322
LeftFoot  -0.582455 0.0650196 -0.61534
LeftToes  1.06247e-005 4.65869e-005 -8.65512e-006
10
root  70.9321 40.4885 0.550249 -100.508 -87.9229 100.853
RightUpLeg  0.596144 -9.55343 -7.63849
RightLeg  4.5143 -7.92783 3.4633
RightFoot  -3.78514 -0.113478 1.4712
RightToes  0.000481921 0.542163 -0.142578
Spine  2.91753 0.245703 -1.55858
Spine1  -0.291312 -0.258084 3.11486
HEad  -3.76727 4.61434 -0.513571
LeftShoulder1  0.584747 -0.156784 -8.35879
LeftArm  -17.6659 7.86963 -3.92221
LeftForeArm  25.0736 -1.7914 -1.26574
LeftHand  -0.25398 0.0180481 5.50724
RightShoulder  0.239251 -1.58482 4.57562
RightArm  -26.0585 -3.61387 2.28576
RightForeArm  -5.46394 1.09809 1.60735
RightHand  -2.66411 11.1227 -19.0362
LeftUpLeg  -0.331274 4.12615 1.22903
LeftLeg  0.846752 16.1434 -4.24911
LeftFoot  -0.604174 0.0675231 -0.654249
LeftToes  1.06247e-005 4.65869e-005 -8.65512e-006
11
root  70.93 40.4878 0.546313 -100.026 -87.9086 100.333
RightUpLeg  0.620205 -9.57905 -7.66772
RightLeg  4.57298 -7.90578 3.46722
RightFoot  -3.82829 -0.113593 1.473
RightToes  0.000481921 0.542163 -0.142578
Spine  2.88908 0.217847 -1.5452
Spine1  -0.227388 -0.284014 3.09224
HEad  -3.77813 4.61042 -0.57836
LeftShoulder1  0.582151 -0.153638 -8.33652
LeftArm  -17.5467 7.92604 -3.91183
LeftForeArm  24.7391 -1.90349 -1.33736
LeftHand  -0.25398 0.0180481 5.50724
RightShoulder  0.241163 -1.5599 4.43341
RightArm  -26.0747 -3.60332 2.34521
RightForeArm  -5.36053 1.21398 1.62667
RightHand  -2.74602 11.4669 -19.2141
LeftUpLeg  -0.320817 4.11566 1.21446
LeftLeg  0.917563 16.1376 -4.217
LeftFoot  -0.639377 0.071189 -0.711221
LeftToes  1.06247e-005 4.65869e-005 -8.65512e-006
12
root  70.9289 40.4852 0.541193 -99.4993 -87.8785 99.7939
RightUpLeg  0.581803 -9.60811 -7.70428
RightLeg  4.68229 -7.87066 3.46024
RightFoot  -3.89044 -0.114496 1.48701
RightToes  0.000481921 0.542163 -0.142578
Spine  2.81596 0.214595 -1.58581
Spine1  -0.130158 -0.291205 3.10187
HEad  -3.90976 4.59514 -0.68034
LeftShoulder1  0.579986 -0.167668 -8.33376
LeftArm  -17.5295 7.95056 -3.8924
LeftForeArm  24.5616 -1.97297 -1.35806
LeftHand  -0.25398 0.0180481 5.50724
RightShoulder  0.243462 -1.5293 4.33795
RightArm  -25.9987 -3.68108 2.28526
RightForeArm  -6.14636 1.34422 1.70297
RightHand  -2.78015 11.2632 -19.6717
LeftUpLeg  -0.343925 4.11113 1.19086
LeftLeg  0.998784 16.1352 -4.19882
LeftFoot  -0.680972 0.074393 -0.761017
LeftToes  1.06247e-005 4.65869e-005 -8.65512e-006
13
root  70.9274 40.483 0.537395 -98.8801 -87.8726 99.1586
RightUpLeg  0.566543 -9.61895 -7.71328
RightLeg  4.75928 -7.8774 3.45167
RightFoot  -3.94114 -0.114535 1.48761
RightToes  0.000481921 0.542163 -0.142578
Spine  2.8019 0.226733 -1.58639
Spine1  -0.111146 -0.270587 3.05549
HEad  -3.87447 4.59788 -0.529675
LeftShoulder1  0.582826 -0.168365 -8.2395
LeftArm  -17.48 7.92435 -3.94839
LeftForeArm  24.4689 -2.03963 -1.39836
LeftHand  -0.25398 0.0180481 5.50724
RightShoulder  0.243362 -1.52476 4.40008
RightArm  -25.8337 -3.75477 2.03973
RightForeArm  -7.81877 1.37571 1.82182
RightHand  -2.64678 10.1391 -20.053
LeftUpLeg  -0.341805 4.12718 1.19576
LeftLeg  1.04097 16.1036 -4.20266
LeftFoot  -0.723113 0.0770322 -0.802034
LeftToes  1.06247e-005 4.65869e-005 -8.65512e-006
14
root  70.9232 40.4822 0.535616 -98.4734 -87.8822 98.7426
RightUpLeg  0.583675 -9.6182 -7.70619
RightLeg  4.77476 -7.90485 3.44947
RightFoot  -3.96316 -0.113847 1.47694
RightToes  0.000481921 0.542163 -0.142578
Spine  2.87002 0.240382 -1.55328
Spine1  -0.232589 -0.238532 2.97104
HEad  -3.7736 4.55886 -0.413198
LeftShoulder1  0.595623 -0.279292 -8.11385
LeftArm  -17.2129 8.03442 -3.95689
LeftForeArm  24.1479 -2.23042 -1.53446
LeftHand  -0.25398 0.0180481 5.50724
RightShoulder  0.237862 -1.58291 4.49124
RightArm  -25.6957 -3.73787 1.80396
RightForeArm  -9.36177 1.28287 1.91403
RightHand  -2.44426 8.86276 -20.1522
LeftUpLeg  -0.314347 4.14142 1.21019
LeftLeg  1.02597 16.0765 -4.21602
LeftFoot  -0.741822 0.0764602 -0.793144
LeftToes  1.06247e-005 4.65869e-005 -8.65512e-006
15
root  70.9147 40.4819 0.534647 -98.275 -87.8736 98.557
RightUpLeg  0.594964 -9.6254 -7.71776
RightLeg  4.76404 -7.91385 3.45147
RightFoot  -3.97152 -0.114345 1.48466
RightToes  0.000481921 0.542163 -0.142578
Spine  2.92487 0.246056 -1.57898
Spine1  -0.377267 -0.228057 2.96274
HEad  -3.89604 4.47566 -0.628476
LeftShoulder1  0.6048 -0.352336 -8.05019
LeftArm  -17.0339 8.17476 -3.95192
LeftForeArm  23.877 -2.40345 -1.62428
LeftHand  -0.25398 0.0180481 5.50724
RightShoulder  0.227532 -1.65474 4.40714
RightArm  -25.6109 -3.72428 1.75346
RightForeArm  -9.87866 1.20154 1.95072
RightHand  -2.35754 8.40936 -20.0754
LeftUpLeg  -0.29541 4.13333 1.19771
LeftLeg  0.985595 16.0851 -4.22667
LeftFoot  -0.720795 0.0718406 -0.721347
LeftToes  1.06247e-005 4.65869e-005 -8.65512e-006
